<svg viewBox="0 0 350 100" fill="none" xmlns="http://www.w3.org/2000/svg">
  <g transform="translate(0,0)">
    <!-- Bar Chart / Buildings -->
    <g fill="currentColor">
      <rect x="62" y="70" width="6" height="12" rx="1"/>
      <rect x="71" y="58" width="6" height="24" rx="1"/>
      <rect x="80" y="44" width="6" height="38" rx="1"/>
    </g>

    <!-- S Shape & Pillar -->
    <path d="M 58 35 C 58 20, 36 20, 36 38 C 36 56, 58 52, 58 70 C 58 88, 36 86, 36 75" stroke="currentColor" stroke-width="11" stroke-linecap="round"/>
    <line x1="47" y1="18" x2="47" y2="86" stroke="currentColor" stroke-width="9" stroke-linecap="round"/>

    <!-- Smaller Arrow -->
    <path d="M 68 44 L 80 32 M 72 32 L 80 32 L 80 40" stroke="currentColor" stroke-width="4" stroke-linecap="round" stroke-linejoin="round"/>

    <!-- Main Swoosh -->
    <path d="M 16 70 C 26 70, 36 60, 48 46 C 58 34, 66 22, 78 14" stroke="currentColor" stroke-width="11" stroke-linecap="round"/>
    <!-- Main Arrow Head -->
    <path d="M 62 18 L 86 8 L 76 32 Z" fill="currentColor"/>
  </g>
  <text x="105" y="45" font-family="'Inter', system-ui, sans-serif" font-weight="900" font-size="30" fill="currentColor" letter-spacing="-0.02em">FINANZAS</text>
  <text x="105" y="75" font-family="'Inter', system-ui, sans-serif" font-weight="900" font-size="30" fill="currentColor" letter-spacing="-0.02em">PERSONALES</text>
  <text x="108" y="92" font-family="'Inter', system-ui, sans-serif" font-weight="600" font-size="9" fill="currentColor" letter-spacing="0.06em" opacity="0.7">GESTIONA TU DINERO CON INTELIGENCIA</text>
</svg>
